<svg width="60" height="48" viewBox="0 0 60 48" fill="none" xmlns="http://www.w3.org/2000/svg">
<path fill-rule="evenodd" clip-rule="evenodd" d="M52.0315 9.63775L48 17.1425L59.2189 23.1692C59.7298 25.3635 60 27.6502 60 30C60 35.4643 58.5391 40.5874 55.9865 45H4.01347C1.46091 40.5874 0 35.4643 0 30C0 24.5357 1.46091 19.4126 4.01347 15H18V2.49626C21.6748 0.890685 25.7334 0 30 0C38.7089 0 46.5511 3.71091 52.0315 9.63775Z" fill="#FEB12F"/>
<path d="M17.32 26.288C16.936 25.584 16.408 25.048 15.736 24.68C15.064 24.312 14.28 24.128 13.384 24.128C12.392 24.128 11.512 24.352 10.744 24.8C9.976 25.248 9.376 25.888 8.944 26.72C8.512 27.552 8.296 28.512 8.296 29.6C8.296 30.72 8.512 31.696 8.944 32.528C9.392 33.36 10.008 34 10.792 34.448C11.576 34.896 12.488 35.12 13.528 35.12C14.808 35.12 15.856 34.784 16.672 34.112C17.488 33.424 18.024 32.472 18.28 31.256H12.52V28.688H21.592V31.616C21.368 32.784 20.888 33.864 20.152 34.856C19.416 35.848 18.464 36.648 17.296 37.256C16.144 37.848 14.848 38.144 13.408 38.144C11.792 38.144 10.328 37.784 9.016 37.064C7.72 36.328 6.696 35.312 5.944 34.016C5.208 32.72 4.84 31.248 4.84 29.6C4.84 27.952 5.208 26.48 5.944 25.184C6.696 23.872 7.72 22.856 9.016 22.136C10.328 21.4 11.784 21.032 13.384 21.032C15.272 21.032 16.912 21.496 18.304 22.424C19.696 23.336 20.656 24.624 21.184 26.288H17.32ZM48.7056 38.168C47.5376 38.168 46.4816 37.968 45.5376 37.568C44.6096 37.168 43.8736 36.592 43.3296 35.84C42.7856 35.088 42.5056 34.2 42.4896 33.176H46.0896C46.1376 33.864 46.3776 34.408 46.8096 34.808C47.2576 35.208 47.8656 35.408 48.6336 35.408C49.4176 35.408 50.0336 35.224 50.4816 34.856C50.9296 34.472 51.1536 33.976 51.1536 33.368C51.1536 32.872 51.0016 32.464 50.6976 32.144C50.3936 31.824 50.0096 31.576 49.5456 31.4C49.0976 31.208 48.4736 31 47.6736 30.776C46.5856 30.456 45.6976 30.144 45.0096 29.84C44.3376 29.52 43.7536 29.048 43.2576 28.424C42.7776 27.784 42.5376 26.936 42.5376 25.88C42.5376 24.888 42.7856 24.024 43.2816 23.288C43.7776 22.552 44.4736 21.992 45.3696 21.608C46.2656 21.208 47.2896 21.008 48.4416 21.008C50.1696 21.008 51.5696 21.432 52.6416 22.28C53.7296 23.112 54.3296 24.28 54.4416 25.784H50.7456C50.7136 25.208 50.4656 24.736 50.0016 24.368C49.5536 23.984 48.9536 23.792 48.2016 23.792C47.5456 23.792 47.0176 23.96 46.6176 24.296C46.2336 24.632 46.0416 25.12 46.0416 25.76C46.0416 26.208 46.1856 26.584 46.4736 26.888C46.7776 27.176 47.1456 27.416 47.5776 27.608C48.0256 27.784 48.6496 27.992 49.4496 28.232C50.5376 28.552 51.4256 28.872 52.1136 29.192C52.8016 29.512 53.3936 29.992 53.8896 30.632C54.3856 31.272 54.6336 32.112 54.6336 33.152C54.6336 34.048 54.4016 34.88 53.9376 35.648C53.4736 36.416 52.7936 37.032 51.8976 37.496C51.0016 37.944 49.9376 38.168 48.7056 38.168Z" fill="#5D5CDB"/>
<path d="M31.8539 38.168C30.2859 38.168 28.8459 37.8 27.5339 37.064C26.2219 36.328 25.1819 35.312 24.4139 34.016C23.6459 32.704 23.2619 31.224 23.2619 29.576C23.2619 27.944 23.6459 26.48 24.4139 25.184C25.1819 23.872 26.2219 22.848 27.5339 22.112C28.8459 21.376 30.2859 21.008 31.8539 21.008C33.4379 21.008 34.8779 21.376 36.1739 22.112C37.4859 22.848 38.5179 23.872 39.2699 25.184C40.0379 26.48 40.4219 27.944 40.4219 29.576C40.4219 31.224 40.0379 32.704 39.2699 34.016C38.5179 35.312 37.4859 36.328 36.1739 37.064C34.8619 37.8 33.4219 38.168 31.8539 38.168ZM31.8539 35.168C32.8619 35.168 33.7499 34.944 34.5179 34.496C35.2859 34.032 35.8859 33.376 36.3179 32.528C36.7499 31.68 36.9659 30.696 36.9659 29.576C36.9659 28.456 36.7499 27.48 36.3179 26.648C35.8859 25.8 35.2859 25.152 34.5179 24.704C33.7499 24.256 32.8619 24.032 31.8539 24.032C30.8459 24.032 29.9499 24.256 29.1659 24.704C28.3979 25.152 27.7979 25.8 27.3659 26.648C26.9339 27.48 26.7179 28.456 26.7179 29.576C26.7179 30.696 26.9339 31.68 27.3659 32.528C27.7979 33.376 28.3979 34.032 29.1659 34.496C29.9499 34.944 30.8459 35.168 31.8539 35.168Z" fill="white"/>
<g clip-path="url(#clip0_37_155)">
<path fill-rule="evenodd" clip-rule="evenodd" d="M32.7758 12.1159C33.5544 11.9517 34.3552 12.0765 35.047 12.4699L41.6717 16.2383L34.2143 17.8116C33.4357 17.9758 32.6349 17.851 31.9431 17.4576L28.4865 15.4911C29.0562 15.4503 29.6261 15.4158 30.1962 15.3877C31.2317 15.3357 32.2675 15.2952 33.3033 15.2662L33.51 15.2608L33.5817 15.2591C33.7952 15.2541 34.0001 15.1577 34.1514 14.9913C34.3028 14.8248 34.3881 14.6019 34.3886 14.3716C34.3892 14.1412 34.3049 13.9223 34.1544 13.763C34.0039 13.6037 33.7994 13.517 33.586 13.522L33.5098 13.5242L33.2997 13.5302C32.253 13.5597 31.2064 13.6005 30.16 13.6526C29.2677 13.6978 28.3321 13.7563 27.5438 13.8295C26.9488 13.8859 26.367 13.9549 25.9554 14.0515L25.3173 13.6891L32.7758 12.1159ZM24.3456 15.1192L23.6012 14.6955C22.5789 14.1147 22.8384 12.4502 23.9889 12.2081L32.5039 10.4121C33.642 10.1721 34.8124 10.3546 35.8234 10.9296L43.3878 15.2319C44.4101 15.8127 44.1507 17.4772 43.0001 17.7193L39.2132 18.518L39.064 22.2697C39.0543 22.5727 38.9713 22.8697 38.8234 23.131C38.6754 23.3924 38.4676 23.6092 38.2206 23.7597C36.2897 24.9025 34.0794 25.3361 31.9311 24.9937C29.3425 24.5902 27.4784 23.0844 26.3797 21.9375C26.1716 21.7174 26.0241 21.4391 25.9528 21.1321C25.8816 20.8251 25.8894 20.501 25.9752 20.1942L26.9654 16.6089L25.8168 15.9555C25.6427 16.088 25.5074 16.2719 25.4277 16.4843C25.5005 16.6199 25.5464 16.771 25.5624 16.928C25.5785 17.085 25.5645 17.2447 25.5212 17.3972C25.4779 17.5497 25.4064 17.6918 25.3109 17.8146C25.2154 17.9375 25.098 18.0384 24.9661 18.1113L24.9671 18.1326L25.1889 22.7921C25.1938 22.8958 25.1771 22.9999 25.1399 23.0968C25.1028 23.1937 25.0462 23.2808 24.9743 23.3519C24.9024 23.4229 24.817 23.476 24.7245 23.5073C24.6319 23.5385 24.5346 23.5471 24.4396 23.5325L22.5873 23.2437C22.4922 23.229 22.402 23.1912 22.3232 23.1334C22.2444 23.0755 22.1791 22.9989 22.1322 22.9093C22.0852 22.8197 22.0577 22.7194 22.0518 22.6157C22.0458 22.512 22.0616 22.4077 22.0978 22.3103L23.7274 17.9382L23.7358 17.9196C23.629 17.8065 23.5462 17.6697 23.4928 17.5182C23.4393 17.3666 23.4165 17.2039 23.4258 17.0405C23.4351 16.8771 23.4763 16.7169 23.5467 16.5703C23.6171 16.4238 23.715 16.2942 23.8341 16.1901C23.8434 16.154 23.8546 16.1146 23.8677 16.0721C23.9736 15.7275 24.1355 15.4048 24.3456 15.1192ZM28.4065 17.4289L27.5161 20.6528C27.5135 20.6649 27.513 20.6727 27.5146 20.676C28.4875 21.6919 30.0633 22.9414 32.1991 23.2743C34.3815 23.6145 36.2321 22.9824 37.4544 22.2524L37.4567 22.2375L37.5908 18.8605L34.4851 19.5153C33.3471 19.7553 32.1766 19.5728 31.1656 18.9978L28.4065 17.4289Z" fill="#5D5CDB"/>
</g>
<defs>
<clipPath id="clip0_37_155">
<rect width="21.2825" height="21.2825" fill="white" transform="translate(24.2778 5) rotate(8.85967)"/>
</clipPath>
</defs>
</svg>
